<svg xmlns="http://www.w3.org/2000/svg" viewBox="0 0 1600 1100" font-family="system-ui, -apple-system, sans-serif">
  <defs>
    <filter id="shadow" x="-2%" y="-2%" width="104%" height="104%">
      <feDropShadow dx="0" dy="2" stdDeviation="3" flood-opacity="0.12"/>
    </filter>
    <linearGradient id="bg" x1="0" y1="0" x2="0" y2="1">
      <stop offset="0%" stop-color="#fafbfc"/>
      <stop offset="100%" stop-color="#f0f2f5"/>
    </linearGradient>
    <style>
      .label { font-size: 13px; font-weight: 600; fill: #1a1a2e; }
      .desc  { font-size: 11px; fill: #5a5a7a; }
      .title { font-size: 22px; font-weight: 800; fill: #0f172a; letter-spacing: -0.5px; }
      .subtitle { font-size: 13px; fill: #64748b; font-weight: 500; }
      .legend-text { font-size: 11px; fill: #334155; }
      .flow-arrow { stroke: #94a3b8; stroke-width: 1.5; fill: none; marker-end: url(#arrow); }
      .data-dotted { stroke: #94a3b8; stroke-width: 1.2; stroke-dasharray: 5,4; fill: none; }
    </style>
    <marker id="arrow" viewBox="0 0 10 10" refX="9" refY="5" markerWidth="6" markerHeight="6" orient="auto">
      <path d="M0,0 L10,5 L0,10 Z" fill="#94a3b8"/>
    </marker>
  </defs>

  <!-- Background -->
  <rect width="1600" height="1100" fill="url(#bg)" rx="12"/>

  <!-- Title -->
  <text x="40" y="52" class="title">VOID Platform — System Architecture</text>
  <text x="40" y="78" class="subtitle">Autonomous AI agent platform · WhatsApp · Telegram · Web Chat · Email</text>

  <!-- Row 1: CLIENT CHANNELS (top) -->
  <!-- WhatsApp -->
  <g filter="url(#shadow)">
    <rect x="40" y="110" width="220" height="72" rx="10" fill="#e8f5e9" stroke="#4caf50" stroke-width="2"/>
    <text x="56" y="134" class="label">🎯 WhatsApp</text>
    <text x="56" y="154" class="desc">Business API</text>
  </g>
  <!-- Telegram -->
  <g filter="url(#shadow)">
    <rect x="280" y="110" width="220" height="72" rx="10" fill="#e8f5e9" stroke="#4caf50" stroke-width="2"/>
    <text x="296" y="134" class="label">🎯 Telegram</text>
    <text x="296" y="154" class="desc">Bot API</text>
  </g>
  <!-- Web Chat -->
  <g filter="url(#shadow)">
    <rect x="520" y="110" width="220" height="72" rx="10" fill="#e8f5e9" stroke="#4caf50" stroke-width="2"/>
    <text x="536" y="134" class="label">🎯 Web Chat</text>
    <text x="536" y="154" class="desc">Interface</text>
  </g>
  <!-- Email -->
  <g filter="url(#shadow)">
    <rect x="760" y="110" width="220" height="72" rx="10" fill="#e8f5e9" stroke="#4caf50" stroke-width="2"/>
    <text x="776" y="134" class="label">🎯 Email</text>
    <text x="776" y="154" class="desc">Clients</text>
  </g>

  <!-- Row 2: INGRESS LAYER -->
  <g filter="url(#shadow)">
    <rect x="40" y="220" width="270" height="68" rx="10" fill="#fff3e0" stroke="#ff9800" stroke-width="2"/>
    <text x="56" y="244" class="label">📥 WhatsApp Webhook</text>
    <text x="56" y="264" class="desc">/api/webhooks/whatsapp</text>
  </g>
  <g filter="url(#shadow)">
    <rect x="330" y="220" width="270" height="68" rx="10" fill="#fff3e0" stroke="#ff9800" stroke-width="2"/>
    <text x="346" y="244" class="label">📥 Telegram Webhook</text>
    <text x="346" y="264" class="desc">/api/webhooks/telegram?id=[id]</text>
  </g>
  <g filter="url(#shadow)">
    <rect x="620" y="220" width="270" height="68" rx="10" fill="#fff3e0" stroke="#ff9800" stroke-width="2"/>
    <text x="636" y="244" class="label">📥 Web Chat API</text>
    <text x="636" y="264" class="desc">/api/chat</text>
  </g>
  <g filter="url(#shadow)">
    <rect x="910" y="220" width="270" height="68" rx="10" fill="#fff3e0" stroke="#ff9800" stroke-width="2"/>
    <text x="926" y="244" class="label">📥 Email Cron</text>
    <text x="926" y="264" class="desc">/api/cron/email-checker</text>
  </g>

  <!-- Row 3: GATEWAY & SECURITY -->
  <g filter="url(#shadow)">
    <rect x="40" y="330" width="270" height="72" rx="10" fill="#fce4ec" stroke="#e91e63" stroke-width="2"/>
    <text x="56" y="354" class="label">🔐 Clerk Auth</text>
    <text x="56" y="374" class="desc">JWT Validation</text>
  </g>
  <g filter="url(#shadow)">
    <rect x="330" y="330" width="270" height="72" rx="10" fill="#fce4ec" stroke="#e91e63" stroke-width="2"/>
    <text x="346" y="354" class="label">🔐 Rate Limiting</text>
    <text x="346" y="374" class="desc">MongoDB Window</text>
  </g>
  <g filter="url(#shadow)">
    <rect x="620" y="330" width="270" height="72" rx="10" fill="#fce4ec" stroke="#e91e63" stroke-width="2"/>
    <text x="636" y="354" class="label">🔐 Plan Limits</text>
    <text x="636" y="374" class="desc">&amp; Trial Check</text>
  </g>

  <!-- Row 4: OPERATIVE RESOLUTION -->
  <g filter="url(#shadow)">
    <rect x="40" y="440" width="270" height="72" rx="10" fill="#e3f2fd" stroke="#2196f3" stroke-width="2"/>
    <text x="56" y="464" class="label">🧠 Find Matching Worker</text>
    <text x="56" y="484" class="desc">Operative Resolution</text>
  </g>
  <g filter="url(#shadow)">
    <rect x="330" y="440" width="270" height="72" rx="10" fill="#e3f2fd" stroke="#2196f3" stroke-width="2"/>
    <text x="346" y="464" class="label">🧠 Smart Routing AI</text>
    <text x="346" y="484" class="desc">Enterprise Only</text>
  </g>
  <g filter="url(#shadow)">
    <rect x="620" y="440" width="270" height="72" rx="10" fill="#e3f2fd" stroke="#2196f3" stroke-width="2"/>
    <text x="636" y="464" class="label">🧠 Duplicate Prevention</text>
    <text x="636" y="484" class="desc">ID Dedup</text>
  </g>

  <!-- Row 5: CONTEXT ASSEMBLY (4 parallel sources) -->
  <g filter="url(#shadow)">
    <rect x="40" y="550" width="300" height="82" rx="10" fill="#f3e5f5" stroke="#9c27b0" stroke-width="2"/>
    <text x="56" y="574" class="label">📚 RAG Retrieval</text>
    <text x="56" y="594" class="desc">Keyword Ranker · Top 5 Chunks</text>
    <text x="56" y="612" class="desc">TrainingData Collection</text>
  </g>
  <g filter="url(#shadow)">
    <rect x="360" y="550" width="300" height="82" rx="10" fill="#f3e5f5" stroke="#9c27b0" stroke-width="2"/>
    <text x="376" y="574" class="label">📚 Google Sheets</text>
    <text x="376" y="594" class="desc">Live Data Fetch</text>
    <text x="376" y="612" class="desc">Relevance Filter</text>
  </g>
  <g filter="url(#shadow)">
    <rect x="680" y="550" width="300" height="82" rx="10" fill="#f3e5f5" stroke="#9c27b0" stroke-width="2"/>
    <text x="696" y="574" class="label">📚 Longitudinal Memory</text>
    <text x="696" y="594" class="desc">ContactMemory Model</text>
    <text x="696" y="612" class="desc">Rolling Summary</text>
  </g>
  <g filter="url(#shadow)">
    <rect x="1000" y="550" width="300" height="82" rx="10" fill="#f3e5f5" stroke="#9c27b0" stroke-width="2"/>
    <text x="1016" y="574" class="label">📚 WhatsApp Catalog</text>
    <text x="1016" y="594" class="desc">Product Recommendations</text>
    <text x="1016" y="612" class="desc">Pro+ Plans</text>
  </g>

  <!-- Row 6: SYSTEM PROMPT CONSTRUCTION -->
  <g filter="url(#shadow)">
    <rect x="40" y="670" width="270" height="72" rx="10" fill="#fffde7" stroke="#ffeb3b" stroke-width="2"/>
    <text x="56" y="694" class="label">⚡ Personality &amp; Tone</text>
    <text x="56" y="714" class="desc">Worker Config</text>
  </g>
  <g filter="url(#shadow)">
    <rect x="330" y="670" width="270" height="72" rx="10" fill="#fffde7" stroke="#ffeb3b" stroke-width="2"/>
    <text x="346" y="694" class="label">⚡ Multi-Language</text>
    <text x="346" y="714" class="desc">Auto-Detection · 30+ Languages</text>
  </g>
  <g filter="url(#shadow)">
    <rect x="620" y="670" width="270" height="72" rx="10" fill="#fffde7" stroke="#ffeb3b" stroke-width="2"/>
    <text x="636" y="694" class="label">⚡ Feature Instructions</text>
    <text x="636" y="714" class="desc">Lead · Action · Email · Booking</text>
  </g>
  <g filter="url(#shadow)">
    <rect x="910" y="670" width="270" height="72" rx="10" fill="#fffde7" stroke="#ffeb3b" stroke-width="2"/>
    <text x="926" y="694" class="label">⚡ Context Window</text>
    <text x="926" y="714" class="desc">Smart Summarization</text>
  </g>

  <!-- Row 7: AI INFERENCE -->
  <g filter="url(#shadow)">
    <rect x="40" y="780" width="270" height="72" rx="10" fill="#e0f7fa" stroke="#00bcd4" stroke-width="2"/>
    <text x="56" y="804" class="label">🤖 Dynamic Provider</text>
    <text x="56" y="824" class="desc">Selection</text>
  </g>
  <g filter="url(#shadow)">
    <rect x="330" y="780" width="270" height="72" rx="10" fill="#e0f7fa" stroke="#00bcd4" stroke-width="2"/>
    <text x="346" y="804" class="label">🤖 Groq + Llama 3.3 70B</text>
    <text x="346" y="824" class="desc">or Mixtral</text>
  </g>
  <g filter="url(#shadow)">
    <rect x="620" y="780" width="270" height="72" rx="10" fill="#e0f7fa" stroke="#00bcd4" stroke-width="2"/>
    <text x="636" y="804" class="label">🤖 A/B Testing</text>
    <text x="636" y="824" class="desc">Variant Assignment</text>
  </g>

  <!-- Row 8: ACTION PROCESSING -->
  <g filter="url(#shadow)">
    <rect x="40" y="890" width="300" height="72" rx="10" fill="#ffebee" stroke="#f44336" stroke-width="2"/>
    <text x="56" y="914" class="label">⚡ Lead Capture</text>
    <text x="56" y="934" class="desc">[LEAD: ...] Tag Parsing</text>
  </g>
  <g filter="url(#shadow)">
    <rect x="360" y="890" width="300" height="72" rx="10" fill="#ffebee" stroke="#f44336" stroke-width="2"/>
    <text x="376" y="914" class="label">⚡ Action Agent</text>
    <text x="376" y="934" class="desc">[ACTION: ...] Webhook</text>
  </g>
  <g filter="url(#shadow)">
    <rect x="680" y="890" width="300" height="72" rx="10" fill="#ffebee" stroke="#f44336" stroke-width="2"/>
    <text x="696" y="914" class="label">⚡ Email Agent</text>
    <text x="696" y="934" class="desc">[SEND_EMAIL: ...] SMTP</text>
  </g>

  <!-- Row 9: POST-PROCESSING -->
  <g filter="url(#shadow)">
    <rect x="40" y="1000" width="270" height="56" rx="10" fill="#f5f5f5" stroke="#9e9e9e" stroke-width="2"/>
    <text x="56" y="1020" class="label">🔄 Memory Update</text>
    <text x="56" y="1038" class="desc">LLM Summary</text>
  </g>
  <g filter="url(#shadow)">
    <rect x="330" y="1000" width="270" height="56" rx="10" fill="#f5f5f5" stroke="#9e9e9e" stroke-width="2"/>
    <text x="346" y="1020" class="label">🔄 Sentiment Analysis</text>
    <text x="346" y="1038" class="desc">Workflow Triggers</text>
  </g>
  <g filter="url(#shadow)">
    <rect x="620" y="1000" width="270" height="56" rx="10" fill="#f5f5f5" stroke="#9e9e9e" stroke-width="2"/>
    <text x="636" y="1020" class="label">🔄 Predictive Lead Scoring</text>
    <text x="636" y="1038" class="desc">Score 0–100</text>
  </g>
  <g filter="url(#shadow)">
    <rect x="910" y="1000" width="270" height="56" rx="10" fill="#f5f5f5" stroke="#9e9e9e" stroke-width="2"/>
    <text x="926" y="1020" class="label">🔄 WebSocket Broadcast</text>
    <text x="926" y="1038" class="desc">Real-Time Dashboard</text>
  </g>

  <!-- Flow arrows (main pipeline) -->
  <!-- Clients → Ingress -->
  <line x1="150" y1="182" x2="150" y2="220" class="flow-arrow"/>
  <line x1="390" y1="182" x2="390" y2="220" class="flow-arrow"/>
  <line x1="650" y1="182" x2="650" y2="220" class="flow-arrow"/>
  <line x1="890" y1="182" x2="890" y2="220" class="flow-arrow"/>

  <!-- Ingress → Gateway -->
  <line x1="175" y1="288" x2="175" y2="330" class="flow-arrow"/>
  <line x1="465" y1="288" x2="465" y2="330" class="flow-arrow"/>
  <line x1="755" y1="288" x2="755" y2="330" class="flow-arrow"/>
  <line x1="1045" y1="288" x2="1045" y2="330" class="flow-arrow"/>

  <!-- Gateway → Operative -->
  <line x1="175" y1="402" x2="175" y2="440" class="flow-arrow"/>
  <line x1="465" y1="402" x2="465" y2="440" class="flow-arrow"/>
  <line x1="755" y1="402" x2="755" y2="440" class="flow-arrow"/>

  <!-- Operative → Context -->
  <line x1="175" y1="512" x2="175" y2="550" class="flow-arrow"/>
  <line x1="490" y1="512" x2="490" y2="550" class="flow-arrow"/>
  <line x1="810" y1="512" x2="810" y2="550" class="flow-arrow"/>
  <line x1="1150" y1="512" x2="1150" y2="550" class="flow-arrow"/>

  <!-- Context → Prompt -->
  <line x1="190" y1="632" x2="190" y2="670" class="flow-arrow"/>
  <line x1="510" y1="632" x2="510" y2="670" class="flow-arrow"/>
  <line x1="830" y1="632" x2="830" y2="670" class="flow-arrow"/>
  <line x1="1150" y1="632" x2="1150" y2="670" class="flow-arrow"/>

  <!-- Prompt → Inference -->
  <line x1="175" y1="742" x2="175" y2="780" class="flow-arrow"/>
  <line x1="465" y1="742" x2="465" y2="780" class="flow-arrow"/>
  <line x1="755" y1="742" x2="755" y2="780" class="flow-arrow"/>

  <!-- Inference → Actions -->
  <line x1="175" y1="852" x2="175" y2="890" class="flow-arrow"/>
  <line x1="510" y1="852" x2="510" y2="890" class="flow-arrow"/>
  <line x1="830" y1="852" x2="830" y2="890" class="flow-arrow"/>

  <!-- Actions → Post -->
  <line x1="190" y1="962" x2="190" y2="1000" class="flow-arrow"/>
  <line x1="510" y1="962" x2="510" y2="1000" class="flow-arrow"/>
  <line x1="830" y1="962" x2="830" y2="1000" class="flow-arrow"/>

  <!-- Data layer (right side, vertical) -->
  <g filter="url(#shadow)">
    <rect x="1330" y="110" width="230" height="40" rx="10" fill="#eceff1" stroke="#607d8b" stroke-width="2"/>
    <text x="1346" y="134" class="label">💾 MongoDB</text>
  </g>

  <!-- Data items stacked vertically -->
  <g filter="url(#shadow)">
    <rect x="1330" y="160" width="230" height="38" rx="8" fill="#eceff1" stroke="#607d8b" stroke-width="1.5"/>
    <text x="1346" y="183" class="label" style="font-size:11px;">Workers</text>
  </g>
  <g filter="url(#shadow)">
    <rect x="1330" y="204" width="230" height="38" rx="8" fill="#eceff1" stroke="#607d8b" stroke-width="1.5"/>
    <text x="1346" y="227" class="label" style="font-size:11px;">Conversations · 30d TTL</text>
  </g>
  <g filter="url(#shadow)">
    <rect x="1330" y="248" width="230" height="38" rx="8" fill="#eceff1" stroke="#607d8b" stroke-width="1.5"/>
    <text x="1346" y="271" class="label" style="font-size:11px;">TrainingData · Chunks</text>
  </g>
  <g filter="url(#shadow)">
    <rect x="1330" y="292" width="230" height="38" rx="8" fill="#eceff1" stroke="#607d8b" stroke-width="1.5"/>
    <text x="1346" y="315" class="label" style="font-size:11px;">Leads · CRM + Scoring</text>
  </g>
  <g filter="url(#shadow)">
    <rect x="1330" y="336" width="230" height="38" rx="8" fill="#eceff1" stroke="#607d8b" stroke-width="1.5"/>
    <text x="1346" y="359" class="label" style="font-size:11px;">ContactMemory · Profiles</text>
  </g>
  <g filter="url(#shadow)">
    <rect x="1330" y="380" width="230" height="38" rx="8" fill="#eceff1" stroke="#607d8b" stroke-width="1.5"/>
    <text x="1346" y="403" class="label" style="font-size:11px;">GoogleSheets · Connections</text>
  </g>
  <g filter="url(#shadow)">
    <rect x="1330" y="424" width="230" height="38" rx="8" fill="#eceff1" stroke="#607d8b" stroke-width="1.5"/>
    <text x="1346" y="447" class="label" style="font-size:11px;">KnowledgeGraph</text>
  </g>
  <g filter="url(#shadow)">
    <rect x="1330" y="468" width="230" height="38" rx="8" fill="#eceff1" stroke="#607d8b" stroke-width="1.5"/>
    <text x="1346" y="491" class="label" style="font-size:11px;">Subscriptions · Plans</text>
  </g>
  <g filter="url(#shadow)">
    <rect x="1330" y="512" width="230" height="38" rx="8" fill="#eceff1" stroke="#607d8b" stroke-width="1.5"/>
    <text x="1346" y="535" class="label" style="font-size:11px;">RateLimits · Counters</text>
  </g>
  <g filter="url(#shadow)">
    <rect x="1330" y="556" width="230" height="38" rx="8" fill="#eceff1" stroke="#607d8b" stroke-width="1.5"/>
    <text x="1346" y="579" class="label" style="font-size:11px;">SentimentWorkflows</text>
  </g>
  <g filter="url(#shadow)">
    <rect x="1330" y="600" width="230" height="38" rx="8" fill="#eceff1" stroke="#607d8b" stroke-width="1.5"/>
    <text x="1346" y="623" class="label" style="font-size:11px;">SystemLogs · Errors</text>
  </g>
  <g filter="url(#shadow)">
    <rect x="1330" y="644" width="230" height="38" rx="8" fill="#eceff1" stroke="#607d8b" stroke-width="1.5"/>
    <text x="1346" y="667" class="label" style="font-size:11px;">AIProviders · Models</text>
  </g>
  <g filter="url(#shadow)">
    <rect x="1330" y="688" width="230" height="38" rx="8" fill="#eceff1" stroke="#607d8b" stroke-width="1.5"/>
    <text x="1346" y="711" class="label" style="font-size:11px;">BookingSettings · Cal.com</text>
  </g>
  <g filter="url(#shadow)">
    <rect x="1330" y="732" width="230" height="38" rx="8" fill="#eceff1" stroke="#607d8b" stroke-width="1.5"/>
    <text x="1346" y="755" class="label" style="font-size:11px;">ABTests · Experiments</text>
  </g>

  <!-- Data dotted connections to major layers -->
  <path d="M1330,185 C1300,185 1100,185 1045,185" class="data-dotted"/>
  <path d="M1330,229 C1210,229 1150,229 1150,229" class="data-dotted"/>
  <path d="M1346,273 L1200,273 L1200,594" class="data-dotted"/>
  <path d="M1330,359 C1250,359 1100,359 830,359" class="data-dotted"/>
  <path d="M1330,447 C1200,447 1100,447 1045,447" class="data-dotted"/>
  <path d="M1330,535 C1200,535 1100,535 830,535" class="data-dotted"/>
  <path d="M1346,623 L1200,623 L1200,714" class="data-dotted"/>
  <path d="M1330,755 C1200,755 910,755 910,755" class="data-dotted"/>

  <!-- Dashboard (right side, below data) -->
  <g filter="url(#shadow)">
    <rect x="1330" y="800" width="230" height="40" rx="10" fill="#e8eaf6" stroke="#3f51b5" stroke-width="2"/>
    <text x="1346" y="824" class="label">📊 Dashboard</text>
  </g>
  <g filter="url(#shadow)">
    <rect x="1330" y="850" width="230" height="36" rx="8" fill="#e8eaf6" stroke="#3f51b5" stroke-width="1.5"/>
    <text x="1346" y="872" class="label" style="font-size:11px;">Fleet · Mission Control</text>
  </g>
  <g filter="url(#shadow)">
    <rect x="1330" y="894" width="230" height="36" rx="8" fill="#e8eaf6" stroke="#3f51b5" stroke-width="1.5"/>
    <text x="1346" y="916" class="label" style="font-size:11px;">Leads CRM · Analytics</text>
  </g>
  <g filter="url(#shadow)">
    <rect x="1330" y="938" width="230" height="36" rx="8" fill="#e8eaf6" stroke="#3f51b5" stroke-width="1.5"/>
    <text x="1346" y="960" class="label" style="font-size:11px;">Training · Config</text>
  </g>
  <g filter="url(#shadow)">
    <rect x="1330" y="982" width="230" height="36" rx="8" fill="#e8eaf6" stroke="#3f51b5" stroke-width="1.5"/>
    <text x="1346" y="1004" class="label" style="font-size:11px;">AB Testing · Sheets UI</text>
  </g>

  <!-- External services (far right) -->
  <g filter="url(#shadow)">
    <rect x="1580" y="110" width="0" height="0" fill="none"/>
  </g>

  <!-- Legend -->
  <g transform="translate(40, 1080)">
    <rect width="700" height="22" rx="6" fill="white" filter="url(#shadow)"/>
    <circle cx="30" cy="11" r="6" fill="#e8f5e9" stroke="#4caf50" stroke-width="1.5"/>
    <text x="42" y="15" class="legend-text">Client Channels</text>
    <circle cx="150" cy="11" r="6" fill="#fff3e0" stroke="#ff9800" stroke-width="1.5"/>
    <text x="162" y="15" class="legend-text">Ingress Layer</text>
    <circle cx="260" cy="11" r="6" fill="#fce4ec" stroke="#e91e63" stroke-width="1.5"/>
    <text x="272" y="15" class="legend-text">Security Gateway</text>
    <circle cx="380" cy="11" r="6" fill="#e3f2fd" stroke="#2196f3" stroke-width="1.5"/>
    <text x="392" y="15" class="legend-text">Operative Resolution</text>
    <circle cx="520" cy="11" r="6" fill="#f3e5f5" stroke="#9c27b0" stroke-width="1.5"/>
    <text x="532" y="15" class="legend-text">Context Assembly</text>
  </g>

  <g transform="translate(40, 1105)">
    <rect width="700" height="22" rx="6" fill="white" filter="url(#shadow)"/>
    <circle cx="30" cy="11" r="6" fill="#fffde7" stroke="#ffeb3b" stroke-width="1.5"/>
    <text x="42" y="15" class="legend-text">Prompt Construction</text>
    <circle cx="170" cy="11" r="6" fill="#e0f7fa" stroke="#00bcd4" stroke-width="1.5"/>
    <text x="182" y="15" class="legend-text">AI Inference</text>
    <circle cx="280" cy="11" r="6" fill="#ffebee" stroke="#f44336" stroke-width="1.5"/>
    <text x="292" y="15" class="legend-text">Action Processing</text>
    <circle cx="420" cy="11" r="6" fill="#f5f5f5" stroke="#9e9e9e" stroke-width="1.5"/>
    <text x="432" y="15" class="legend-text">Post-Processing</text>
    <circle cx="550" cy="11" r="6" fill="#eceff1" stroke="#607d8b" stroke-width="1.5"/>
    <text x="562" y="15" class="legend-text">Data Layer (MongoDB)</text>
  </g>

  <g transform="translate(760, 1080)">
    <rect width="340" height="22" rx="6" fill="white" filter="url(#shadow)"/>
    <circle cx="30" cy="11" r="6" fill="#e8eaf6" stroke="#3f51b5" stroke-width="1.5"/>
    <text x="42" y="15" class="legend-text">Dashboard &amp; Management</text>
    <circle cx="210" cy="11" r="6" fill="#f1f8e9" stroke="#7cb342" stroke-width="1.5"/>
    <text x="222" y="15" class="legend-text">External Services</text>
  </g>

  <!-- Solid = data flow, dotted = data dependency -->
  <g transform="translate(760, 1105)">
    <rect width="280" height="22" rx="6" fill="white" filter="url(#shadow)"/>
    <line x1="30" y1="11" x2="70" y2="11" stroke="#94a3b8" stroke-width="1.5" marker-end="url(#arrow)"/>
    <text x="78" y="15" class="legend-text">Message Flow</text>
    <line x1="160" y1="11" x2="200" y2="11" stroke="#94a3b8" stroke-width="1.2" stroke-dasharray="4,3"/>
    <text x="208" y="15" class="legend-text">Data Dependency</text>
  </g>

  <!-- Tech stack callout -->
  <g transform="translate(760, 1105)">
    <rect width="200" height="46" rx="8" fill="#0f172a" opacity="0.04" stroke="#cbd5e1" stroke-width="1"/>
    <text x="15" y="20" class="label" style="font-size:10px;fill:#64748b;">Tech Stack</text>
    <text x="15" y="36" class="desc" style="font-size:10px;">Next.js 15 · Clerk Auth · MongoDB · Groq LPU · Google Sheets API</text>
  </g>
</svg>
